<?xml version="1.0" encoding="UTF-8"?>
<!DOCTYPE svg PUBLIC "-//W3C//DTD SVG 1.1//EN" "http://www.w3.org/Graphics/SVG/1.1/DTD/svg11.dtd">
<!-- Creator: CorelDRAW 2019 (64-Bit) -->
<svg xmlns="http://www.w3.org/2000/svg" xml:space="preserve" width="12.6998mm" height="12.6998mm" version="1.1" style="shape-rendering:geometricPrecision; text-rendering:geometricPrecision; image-rendering:optimizeQuality; fill-rule:evenodd; clip-rule:evenodd"
viewBox="0 0 1269.98 1269.98"
 xmlns:xlink="http://www.w3.org/1999/xlink">
 <defs>
  <style type="text/css">
   <![CDATA[
    .str1 {stroke:black;stroke-width:7.62;stroke-miterlimit:22.9256}
    .str3 {stroke:black;stroke-width:7.62;stroke-miterlimit:22.9256}
    .str0 {stroke:#333333;stroke-width:7.62;stroke-miterlimit:22.9256}
    .str4 {stroke:white;stroke-width:7.62;stroke-miterlimit:22.9256}
    .str2 {stroke:black;stroke-width:7.62;stroke-linejoin:bevel;stroke-miterlimit:22.9256}
    .fil1 {fill:none}
    .fil5 {fill:#1A1A1A}
    .fil0 {fill:#333333}
    .fil8 {fill:#C2630A}
    .fil3 {fill:#E6E6E6}
    .fil7 {fill:#EB7200}
    .fil4 {fill:#F2F2F2}
    .fil6 {fill:#FB7900}
    .fil9 {fill:#FB7900}
    .fil2 {fill:white}
   ]]>
  </style>
    <clipPath id="id0">
     <path d="M341 494.41l282.99 0 0 355.59 -282.99 0 0 -355.59z"/>
    </clipPath>
    <clipPath id="id1">
     <path d="M679.6 498.89l276.68 0 0 354.13 -276.68 0 0 -354.13z"/>
    </clipPath>
    <clipPath id="id2">
     <path d="M432.44 554.84l113.21 0 0 204.87 -113.21 0 0 -204.87z"/>
    </clipPath>
    <clipPath id="id3">
     <path d="M751.44 553.01l113.21 0 0 204.84 -113.21 0 0 -204.84z"/>
    </clipPath>
    <clipPath id="id4">
     <path d="M552.34 776.92l9.18 0 0 275.17 -9.18 0 0 -275.17z"/>
    </clipPath>
 </defs>
 <g id="Capa_x0020_1">
  <metadata id="CorelCorpID_0Corel-Layer"/>
  <circle class="fil0 str0" cx="626.31" cy="651.41" r="588.7"/>
  <polygon class="fil1 str1" points="327.97,934.02 650.35,784.21 972.74,934.02 650.35,1098.83 "/>
  <polygon class="fil1 str1" points="327.97,392.19 650.35,242.38 972.74,392.19 650.35,557 "/>
  <polygon class="fil2 str1" points="327.97,392.19 650.35,557 650.35,1098.83 327.97,934.02 "/>
  <polygon class="fil3 str1" points="972.74,392.19 650.35,557 650.35,1098.83 817.93,1013.16 817.93,787.43 817.93,1013.16 818.17,1013.03 972.74,934.02 "/>
  <polygon class="fil2 str1" points="306.97,394.36 650.5,234.73 994.02,394.36 650.5,569.98 "/>
  <polygon class="fil2 str1" points="306.97,353.55 650.5,529.17 650.5,569.98 306.97,394.36 "/>
  <polygon class="fil3 str1" points="994.02,353.55 650.5,529.17 650.5,569.98 994.02,394.36 "/>
  <polygon class="fil4 str1" points="306.97,353.55 650.5,193.92 994.02,353.55 650.5,529.17 "/>
  <polygon class="fil5 str1" points="471.05,357.37 650.49,273.98 829.94,357.37 650.49,449.11 "/>
  <g id="_2202274719440">
   <g style="clip-path:url(#id0)">
    <image x="341" y="494.41" width="282.99" height="355.59" xlink:href="logiyto_Images\logiyto_ImgID1.png"/>
   </g>
  </g>
  <g id="_2202274717936">
   <polygon class="fil6 str2" points="587.77,688.59 587.78,689.3 587.81,692.1 587.81,692.1 "/>
   <polygon class="fil6 str2" points="587.81,692.1 587.81,692.1 587.78,694.89 587.77,695.59 "/>
  </g>
  <path class="fil6 str1" d="M482.49 515.44c29.08,11.37 55.4,36.9 74.44,68.84 19.04,31.94 30.88,70.46 30.88,107.82 0,37.44 -11.84,66.71 -30.88,83.75 -19.04,17.04 -45.39,21.88 -74.44,10.5 -29.1,-11.38 -55.46,-36.83 -74.5,-68.77 -19.04,-31.94 -30.81,-70.44 -30.81,-107.89 0,-37.35 11.77,-66.63 30.81,-83.67 19.04,-17.04 45.43,-21.95 74.5,-10.58z"/>
  <g id="_2202274715120">
   <g style="clip-path:url(#id1)">
    <image x="679.6" y="498.89" width="276.68" height="354.13" xlink:href="logiyto_Images\logiyto_ImgID2.png"/>
   </g>
  </g>
  <path class="fil6 str1" d="M817.93 516.52c28.41,-11.38 54.14,-6.46 72.74,10.58 18.6,17.04 30.17,46.31 30.17,83.67 0,37.44 -11.57,75.95 -30.17,107.89 -18.6,31.94 -44.34,57.4 -72.74,68.77 -28.42,11.38 -54.16,6.55 -72.76,-10.5 -18.61,-17.04 -30.11,-46.31 -30.11,-83.75 0,-37.36 11.5,-75.87 30.11,-107.81 18.6,-31.94 44.35,-57.48 72.76,-68.85z"/>
  <g id="_2202274712592">
   <g style="clip-path:url(#id2)">
    <image x="432.44" y="554.84" width="113.21" height="204.87" xlink:href="logiyto_Images\logiyto_ImgID3.png"/>
   </g>
  </g>
  <path class="fil2 str3" d="M493.36 592.95c3.87,2 7.73,3.98 11.6,5.96 -2.8,5.35 -5.6,10.71 -8.4,16.05 -2.79,5.34 -5.59,10.68 -8.39,16.03 4.16,2.12 8.33,4.25 12.48,6.38 4.15,2.12 8.32,4.25 12.49,6.38 0,5.8 0,11.6 0,17.39 -13.35,-6.82 -26.7,-13.65 -40.03,-20.46 -13.33,-6.82 -26.67,-13.64 -40,-20.45 0,-5.79 0,-11.59 0,-17.39 3.91,2 7.82,4 11.74,6 3.91,2 7.82,4 11.74,6 -2.8,-8.2 -5.6,-16.42 -8.39,-24.62 -2.79,-8.2 -5.58,-16.4 -8.38,-24.62 3.87,1.98 7.73,3.96 11.6,5.91 2.84,8.25 5.7,16.49 8.54,24.72 2.84,8.23 5.69,16.47 8.54,24.7 2.59,1.32 5.18,2.65 7.77,3.97 2.85,-5.32 5.7,-10.63 8.54,-15.95 2.84,-5.32 5.7,-10.66 8.55,-16zm-0.03 131.24c3.87,1.98 7.73,3.95 11.6,5.93 -2.8,-8.19 -5.59,-16.39 -8.38,-24.59 -2.8,-8.2 -5.59,-16.39 -8.39,-24.61 4.16,2.13 8.33,4.26 12.48,6.38 4.15,2.12 8.32,4.26 12.49,6.38 0,-5.78 0,-11.58 0,-17.39 -13.34,-6.82 -26.69,-13.64 -40.02,-20.45 -13.33,-6.82 -26.67,-13.64 -40,-20.45 0,5.8 0,11.6 0,17.39 3.91,2 7.82,4 11.73,6 3.92,2 7.83,4 11.75,6 -2.8,5.36 -5.6,10.7 -8.39,16.05 -2.8,5.34 -5.59,10.67 -8.38,16 3.86,1.98 7.73,3.96 11.59,5.93 2.84,-5.31 5.7,-10.61 8.54,-15.93 2.84,-5.32 5.7,-10.63 8.55,-15.96 2.58,1.32 5.17,2.65 7.77,3.97 2.84,8.24 5.68,16.46 8.52,24.68 2.84,8.22 5.7,16.46 8.54,24.67z"/>
  <g id="_2202274711440">
   <g style="clip-path:url(#id3)">
    <image x="751.44" y="553.01" width="113.21" height="204.84" xlink:href="logiyto_Images\logiyto_ImgID4.png"/>
   </g>
  </g>
  <path class="fil2 str3" d="M802.04 592.21c-3.87,2 -7.73,3.98 -11.61,5.96 2.81,5.35 5.61,10.7 8.4,16.05 2.8,5.34 5.6,10.68 8.39,16.03 -4.15,2.12 -8.32,4.25 -12.47,6.37 -4.16,2.13 -8.32,4.26 -12.49,6.39 0,5.8 0,11.6 0,17.38 13.35,-6.82 26.7,-13.64 40.03,-20.45 13.33,-6.82 26.67,-13.64 39.99,-20.45 0,-5.79 0,-11.59 0,-17.4 -3.9,2 -7.82,4 -11.73,6.01 -3.91,2 -7.83,4 -11.75,6 2.8,-8.2 5.6,-16.42 8.4,-24.62 2.79,-8.2 5.58,-16.4 8.38,-24.62 -3.87,1.98 -7.74,3.95 -11.6,5.9 -2.84,8.26 -5.7,16.5 -8.54,24.73 -2.84,8.22 -5.7,16.47 -8.55,24.7 -2.58,1.32 -5.17,2.65 -7.77,3.97 -2.84,-5.32 -5.69,-10.63 -8.53,-15.95 -2.84,-5.32 -5.7,-10.66 -8.55,-16zm0.03 131.24c-3.87,1.97 -7.73,3.95 -11.61,5.93 2.8,-8.19 5.6,-16.4 8.39,-24.59 2.79,-8.2 5.59,-16.39 8.38,-24.61 -4.15,2.13 -8.32,4.26 -12.47,6.38 -4.15,2.12 -8.32,4.25 -12.49,6.38 0,-5.79 0,-11.59 -0.01,-17.39 13.35,-6.82 26.7,-13.64 40.03,-20.45 13.33,-6.82 26.67,-13.64 39.99,-20.45 0,5.8 0,11.6 0,17.39 -3.9,2 -7.81,4 -11.73,6 -3.91,2 -7.82,4 -11.74,6 2.8,5.36 5.6,10.7 8.39,16.04 2.79,5.35 5.59,10.68 8.38,16.01 -3.87,1.98 -7.73,3.95 -11.59,5.93 -2.84,-5.31 -5.7,-10.61 -8.54,-15.93 -2.84,-5.32 -5.7,-10.63 -8.55,-15.96 -2.58,1.32 -5.18,2.65 -7.77,3.97 -2.84,8.24 -5.69,16.45 -8.52,24.68 -2.84,8.22 -5.7,16.45 -8.54,24.67z"/>
  <polygon class="fil2 str4" points="523.44,332.05 702.93,422.84 676.94,435.84 497.5,344.1 "/>
  <polygon class="fil2 str4" points="627.37,281.02 806.85,371.82 780.87,384.81 601.42,293.08 "/>
  <line class="fil1 str1" x1="890.67" y1="718.66" x2="890.67" y2= "974.77" />
  <line class="fil1 str1" x1="745.17" y1="776.93" x2="745.17" y2= "1049.97" />
  <line class="fil1 str1" x1="407.99" y1="720.77" x2="407.99" y2= "974.24" />
  <g id="_2202274702064">
   <g style="clip-path:url(#id4)">
    <image x="552.34" y="776.92" width="9.18" height="275.17" xlink:href="logiyto_Images\logiyto_ImgID5.png"/>
   </g>
  </g>
  <line class="fil1 str1" x1="556.93" y1="777.98" x2="556.93" y2= "1051.03" />
  <line class="fil1 str1" x1="482.49" y1="790.61" x2="482.49" y2= "1013.06" />
  <line class="fil1 str1" x1="409.06" y1="718.64" x2="409.06" y2= "972.11" />
  <line class="fil1 str1" x1="409.06" y1="721.83" x2="409.06" y2= "975.3" />
  <line class="fil1 str1" x1="410.12" y1="721.83" x2="410.12" y2= "975.3" />
  <line class="fil1 str1" x1="411.41" y1="723.96" x2="411.41" y2= "977.43" />
  <line class="fil1 str1" x1="481.43" y1="789.54" x2="481.43" y2= "1012" />
  <line class="fil1 str1" x1="483.56" y1="791.67" x2="483.56" y2= "1014.12" />
  <line class="fil1 str1" x1="555.87" y1="776.91" x2="555.87" y2= "1049.96" />
  <line class="fil1 str1" x1="554.8" y1="776.91" x2="554.8" y2= "1049.96" />
  <line class="fil1 str1" x1="553.74" y1="776.91" x2="553.74" y2= "1049.96" />
  <line class="fil1 str1" x1="552.68" y1="775.85" x2="552.68" y2= "1048.9" />
  <line class="fil1 str1" x1="484.62" y1="791.67" x2="484.62" y2= "1014.12" />
  <line class="fil1 str1" x1="485.68" y1="791.67" x2="485.68" y2= "1014.12" />
  <line class="fil1 str1" x1="412.47" y1="723.96" x2="412.47" y2= "977.43" />
  <line class="fil1 str1" x1="413.53" y1="725.02" x2="413.53" y2= "978.49" />
  <line class="fil1 str1" x1="480.37" y1="789.54" x2="480.37" y2= "1012" />
  <polygon class="fil7 str3" points="590.58,174.65 752.21,251.41 741.95,405.37 706.52,425.16 571.97,355.03 "/>
  <polygon class="fil8 str4" points="752.21,251.41 787.06,239.38 777.74,387.23 741.95,405.37 "/>
  <polygon class="fil9 str4" points="590.58,174.65 752.21,251.41 787.06,239.38 625.43,162.62 "/>
  <path class="fil2 str3" d="M694.15 258.51c5.47,2.64 11,5.26 16.59,7.92 -4.41,4.59 -8.81,9.18 -13.21,13.76 -4.38,4.57 -8.79,9.15 -13.17,13.72 5.93,3.01 11.91,6.06 17.96,9.13 6.11,3.09 12.28,6.24 18.51,9.4 -0.28,5.88 -0.56,11.79 -0.84,17.72 -10.06,-5.25 -19.95,-10.42 -29.66,-15.49 -9.56,-4.99 -18.97,-9.92 -28.24,-14.76 -9.12,-4.77 -18.11,-9.46 -26.96,-14.08 -8.71,-4.56 -17.28,-9.04 -25.72,-13.45 0.54,-5.26 1.08,-10.5 1.62,-15.72 4.91,2.51 9.87,5.02 14.87,7.56 5.05,2.56 10.14,5.15 15.28,7.76 -3.12,-8.12 -6.21,-16.13 -9.24,-24.03 -2.99,-7.79 -5.97,-15.52 -8.9,-23.17 4.85,2.3 9.76,4.63 14.69,6.94 3.12,7.84 6.3,15.75 9.49,23.73 3.23,8.08 6.53,16.3 9.86,24.61 2.09,1.06 4.18,2.12 6.28,3.18 1.44,0.74 2.89,1.48 4.34,2.22 4.4,-4.49 8.82,-8.98 13.2,-13.45 4.4,-4.49 8.84,-8.97 13.25,-13.5zm-8.15 131.94c5.79,3.41 11.65,6.84 17.57,10.32 -3.89,-9.81 -7.72,-19.53 -11.48,-29.12 -3.7,-9.43 -7.39,-18.78 -11,-27.99 6.06,3.35 12.18,6.7 18.36,10.11 6.25,3.44 12.56,6.92 18.93,10.42 0.29,-6.13 0.58,-12.23 0.87,-18.3 -10.13,-5.42 -20.09,-10.74 -29.87,-15.98 -9.61,-5.15 -19.09,-10.24 -28.42,-15.23 -9.18,-4.92 -18.21,-9.75 -27.12,-14.52 -8.76,-4.69 -17.39,-9.31 -25.87,-13.86 -0.55,5.38 -1.11,10.77 -1.67,16.19 5,2.76 10.06,5.54 15.16,8.34 5.14,2.84 10.33,5.69 15.58,8.57 -4.35,4.52 -8.71,9.03 -13.03,13.55 -4.33,4.51 -8.67,9.03 -12.99,13.5 5.1,2.99 10.24,6.02 15.44,9.07 4.45,-4.5 8.93,-9.04 13.38,-13.57 4.45,-4.54 8.94,-9.07 13.4,-13.61 2.13,1.17 4.27,2.35 6.41,3.53 1.47,0.81 2.95,1.61 4.44,2.43 3.52,9.06 7.12,18.25 10.73,27.53 3.66,9.41 7.39,18.98 11.18,28.62z"/>
  <line class="fil1 str1" x1="746.23" y1="776.93" x2="746.23" y2= "1049.97" />
  <line class="fil1 str1" x1="747.29" y1="776.93" x2="747.29" y2= "1049.97" />
  <line class="fil1 str1" x1="748.35" y1="775.87" x2="748.35" y2= "1048.9" />
  <line class="fil1 str1" x1="889.61" y1="719.73" x2="889.61" y2= "975.83" />
  <line class="fil1 str1" x1="888.55" y1="719.73" x2="888.55" y2= "975.83" />
  <line class="fil1 str1" x1="887.48" y1="720.79" x2="887.48" y2= "976.9" />
  <line class="fil1 str1" x1="886.42" y1="721.85" x2="886.42" y2= "977.96" />
  <line class="fil1 str1" x1="819.46" y1="785.88" x2="819.46" y2= "1011.2" />
  <line class="fil1 str1" x1="820.52" y1="785.88" x2="820.52" y2= "1011.2" />
  <line class="fil1 str1" x1="821.58" y1="785.88" x2="821.58" y2= "1011.2" />
 </g>
</svg>
